<svg width="128" height="128" xmlns="http://www.w3.org/2000/svg">
  <defs>
    <linearGradient id="grad1" x1="0%" y1="0%" x2="100%" y2="100%">
      <stop offset="0%" style="stop-color:#3498db;stop-opacity:1" />
      <stop offset="100%" style="stop-color:#2980b9;stop-opacity:1" />
    </linearGradient>
    <linearGradient id="grad2" x1="0%" y1="0%" x2="100%" y2="100%">
      <stop offset="0%" style="stop-color:#27ae60;stop-opacity:1" />
      <stop offset="100%" style="stop-color:#2ecc71;stop-opacity:1" />
    </linearGradient>
  </defs>
  
  <!-- Background circle -->
  <circle cx="64" cy="64" r="60" fill="url(#grad1)" stroke="#1a5490" stroke-width="2"/>
  
  <!-- Leaf symbol for environmental impact -->
  <path d="M45 45 Q35 35, 45 25 Q55 35, 45 45 Q40 50, 35 45" fill="url(#grad2)" opacity="0.8"/>
  
  <!-- Circuit/AI pattern -->
  <rect x="55" y="35" width="3" height="15" fill="white" opacity="0.9"/>
  <rect x="70" y="35" width="3" height="15" fill="white" opacity="0.9"/>
  <rect x="85" y="45" width="15" height="3" fill="white" opacity="0.9"/>
  <rect x="55" y="55" width="15" height="3" fill="white" opacity="0.9"/>
  <circle cx="73" cy="46" r="2" fill="white"/>
  <circle cx="86" cy="56" r="2" fill="white"/>
  
  <!-- "AI" text -->
  <text x="64" y="85" font-family="Arial, sans-serif" font-size="24" font-weight="bold" fill="white" text-anchor="middle">AI</text>
  
  <!-- Environmental indicators -->
  <circle cx="90" cy="75" r="3" fill="#e74c3c" opacity="0.8"/>
  <circle cx="38" cy="75" r="3" fill="#f39c12" opacity="0.8"/>
  <circle cx="64" cy="100" r="3" fill="#27ae60" opacity="0.8"/>
</svg>
